<?xml version="1.0" encoding="utf-8"?>
<!-- Generator: Adobe Illustrator 26.0.0, SVG Export Plug-In . SVG Version: 6.00 Build 0)  -->
<svg version="1.1" id="Capa_1" xmlns="http://www.w3.org/2000/svg" xmlns:xlink="http://www.w3.org/1999/xlink" x="0px" y="0px"
	 viewBox="0 0 234.8 104.9" style="enable-background:new 0 0 234.8 104.9;" xml:space="preserve">
<style type="text/css">
	.st0{fill:#FFFFFF;}
</style>
<g>
	<path class="st0" d="M189.6,2.2l-47,18L60,18.1c-0.7,0-1.4,0.1-2.1,0.4c-1.8,0.6-3.1,2.3-3.5,4.2c-0.4,2.7,1.1,5.3,3.6,6.2L90.6,40
		L53,54.5c-8.6-6.6-16.8-13.2-24.3-19.2C17.1,25.8,9,22.7,4,25.8c-0.5,0.4-0.9,0.6-1.3,1.1c-3.5,3.5-2.8,10-1.8,12.4l21.6,47.9
		c0.7,1.8,1.7,3,3.1,3.5c2.3,1.1,4.7,0.1,7.2-1l9.2-3.5l49-10.8L79.1,96.8c-1.3,2.4-0.7,5.4,1.5,7c1.5,1.2,3.6,1.5,5.3,0.8
		c0.7-0.3,1.3-0.6,1.8-1.1l33.5-31.5c2.3,2.2,5.8,2.8,8.8,1.7c0.9-0.4,1.8-0.8,2.6-1.6c1.1,0.1,2.1-0.1,3-0.5
		c4.1-1.6,6.4-6.3,5.2-10.4c0.8-1.3,1.3-2.8,1.3-4.4l57.4-21.9c0,1,0.1,2,0.6,3c0.8,2.1,2.4,3.8,4.5,4.7c2.1,0.9,4.4,1,6.6,0.2
		c0.5-0.2,1-0.4,1.4-0.7c0.6-0.3,1.1-0.8,1.6-1.3c2.4-2.4,3.1-5.9,1.9-9.1c-0.4-0.9-0.8-1.8-1.6-2.5l6.2-2.4
		c1.2-0.5,2.4-0.8,3.5-1.3c2.7-1,5.2-1.8,7.3-3c0.8-0.5,1.5-1.1,2.1-1.6c2.5-2.5,3-5.8,1.3-10.2l-0.4-0.5
		C224.5-1.4,199.4-1.5,189.6,2.2z M211.5,33.2c0.7,1.8-0.2,4-2.1,4.7c-0.9,0.4-1.9,0.4-2.8-0.1c-0.8-0.4-1.6-1.1-1.9-2.1
		c-0.5-1.2-0.2-2.6,0.7-3.7l1.3-1.4l1.9,0.2C209.9,31.1,211,32,211.5,33.2z M84.1,100c-0.2,0.1-0.4,0-0.6-0.1
		c-0.2-0.2-0.4-0.5-0.2-0.8l17.2-30.9l-60,13.3l-9.6,3.7c-1.1,0.4-3,1.2-3.5,1.1c0,0-0.3-0.1-0.5-0.9L5.3,37.4
		c-0.6-1.8-0.8-6.2,1.3-7.5c1.1-0.6,5.6-1.9,19.2,9.1c8.3,6.8,17,13.6,25.4,20.2l1.1,0.8l52.8-20.2L59.9,24.3
		c-0.3-0.1-0.4-0.4-0.4-0.6c0-0.1,0.1-0.2,0.1-0.3l0.4-0.1l83,1.8l48.3-18.3c7.6-2.9,30.1-3.5,39.2,6c0.9,2.6,0.3,3.7-0.4,4.4
		c-0.3,0.3-0.7,0.6-1.1,0.8c-1.6,1-3.7,1.8-6.3,2.6c-1.1,0.4-2.4,0.8-3.7,1.3l-82.4,31.5l0.6,2.1c0.4,1.2-0.1,2.5-0.8,3.4l-1.1,1.3
		l0.9,1.9c0.7,1.8-0.2,4-2.1,4.7c-0.6,0.3-1.2,0.2-1.8,0.1l-1.4-0.3l-0.8,1.1c-0.4,0.6-0.9,0.9-1.6,1.1c-1.8,0.6-3.7-0.1-4.5-1.8
		l-1.4-3L84.1,100z"/>
</g>
</svg>
