<?xml version="1.0" encoding="utf-8"?>
<!-- Generator: Adobe Illustrator 26.0.0, SVG Export Plug-In . SVG Version: 6.00 Build 0)  -->
<svg version="1.1" id="Capa_1" xmlns="http://www.w3.org/2000/svg" xmlns:xlink="http://www.w3.org/1999/xlink" x="0px" y="0px"
	 viewBox="0 0 528.3 548.6" style="enable-background:new 0 0 528.3 548.6;" xml:space="preserve">
<style type="text/css">
	.st0{fill:#FFFFFF;}
</style>
<g>
	<g>
		<path class="st0" d="M523,0.6c-9,6.4-16.7,14.1-23.8,22.5c-6.6,7.8-9.2,17.1-11,26.8c-0.9,4.6-2.7,5.9-7.8,5.8
			c-3.4-0.1-5-1.9-5.6-6c-1.7-10.9-6.8-19.8-16-26.1c-9.1-6.2-17.9-12.6-25.4-20.8c-0.9-1-2.3-1.6-3.3-2.3c-4.3,4-3,9-3.1,13.2
			c-0.2,9.6,2.3,18.8,6.9,27.4c3.8,6.9,7.9,13.8,15.2,17.1c5.3,2.4,6.5,5.6,5.6,10.5c-0.2,1.4-0.9,2.8-1.2,4.2
			c-1.1,5.2-2.5,10.4-3.1,15.7c-0.6,5.3,1,10.7-0.8,16c-0.8,2.5-1.1,5.2-1.5,7.9c-1.3,7.1-4,13.5-9,18.8c-6.4,6.8-15.1,9.7-23.5,13
			c-11.3,4.4-22,10.1-31.3,18c-7.2,6.1-14.3,12.5-22.3,17.5c-11.5,7.1-23.7,13-35.6,19.5c-17.2,9.3-31.6,22-43.9,37.3
			c-9,11.1-15.5,23.7-21.4,36.6c-5.3,11.7-9.2,23.9-11.1,36.5c-1.7,11.1-2,22.4-1.2,33.8c1,12.8,0.7,25.7,0.1,38.5
			c-0.5,11.6-3.9,22.8-8.3,33.6c-6.6,16.2-15.6,30.9-27.1,44.2c-12.6,14.6-27.4,26.3-44.5,35.2c-14.9,7.8-31.3,9.8-47.5,12.6
			c-10.7,1.9-21.4,3.5-32.1,5.4c-7.3,1.3-14.6,2.9-21.9,4.3c-11,2-22.1,4-33.2,5.9c-4.8,0.8-9.7,1.4-14.4,2.3
			C13,526.5,5.9,527,0,532.7c2.4,0.5,4.5,1.3,6.5,1.3c5.8-0.1,11.6-0.7,17.3-0.6c8.1,0,16.3,0.7,24.4,0.6c36.1-0.3,72.2,1,108.2-1.3
			c8.8-0.6,17.5-1.2,26.3-2.9c10.1-2,19.4-5.6,28.3-10.4c21.1-11.4,37.5-28.1,51.8-46.9c9.7-12.7,18.5-26.1,27.6-39.4
			c1.7-2.5,3.1-2,4.6-0.3c1.1,1.3,2,2.8,2.9,4.3c3.2,5.1,7.7,9.5,8.9,15.8c1.2,6.8,2.7,13.7,3.4,20.6c0.7,6.3,1.4,12.9,0.5,19.1
			c-2,13.5-4.9,26.8-3.8,40.5c0.3,3.2,1.4,6.6,4.5,7.4c4.2,1.1,8.7,1.3,13,1.2c8.3-0.3,16.4-3.2,24.8-1c4.3,1.2,8.7,2.1,13,3.4
			c4.9,1.5,10.1,1.5,15,3.7c3.5,1.6,8.3,0.5,12.5,0.2c2.1-0.2,4.7-0.9,6-2.4c2.7-3.2,5.4-5,9.5-3.3c0.3,0.1,0.7,0,1.1,0
			c6.5,0.2,13.1,0.5,19.6,0.7c1.3,0,2.6-0.1,4.7-0.2c-4.3-8.7-10.5-14.1-18.8-16.7c-10.6-3.3-21.5-5.9-32.7-7
			c-10.8-1-21.5-3.3-32.3-4.9c-4-0.6-7.4-4.8-6.5-8.9c2.1-9.6,5.1-18.8,10.6-27c2.4-3.6,4.6-7.5,6.4-11.4
			c5.2-11.6,10.2-23.2,17.7-33.6c1.7-2.4,3.2-2.5,4.5-0.4c3.7,6,7.9,11.9,10.3,18.4c3.8,10,6.8,20.3,9.2,30.7
			c1.1,4.9,0.2,10.5-0.4,15.6c-0.6,5.2-2.3,10.2-2.9,15.4c-0.2,1.4,1.3,3.7,2.6,4.5c2.2,1.4,4.9,2.1,7.5,2.7c7,1.6,14.1,3,21.1,4.4
			c1.9,0.4,4,0.2,5.8,0.9c12.6,4.8,25.7,5.9,39,5.7c3.3,0,6.8-0.5,9.2-3.5c0.5-0.7,2-0.9,3-0.9c8.4,0.8,16.8,1.6,25.2,2.5
			c1,0.1,2,0.3,3.4,0.5c-0.2-4.3-2.7-6.4-5.5-8.3c-2.3-1.6-5.3-2.5-7-4.6c-6-7-14.1-8.2-22.5-8.7c-4.3-0.2-8.6-0.4-12.9-0.8
			c-11.9-0.9-23.7-2.1-35.6-2.8c-3.9-0.3-6.1-2-7.2-5.5c-3.5-11.6-0.8-22.6,4.1-33c4.8-10,8.2-20.3,10-31.2
			c1.9-11.8,3.8-23.6,5.6-35.5c1-7.1,2.3-14.3,2.5-21.5c0.2-7.6-0.8-15.2-1.4-22.8c-0.5-5.6-0.8-11.3-1.9-16.8
			c-1.6-8.6-3.8-17.2-5.4-25.8c-0.4-2.1,0-4.8,1.1-6.5c3.5-5.5,7.4-10.7,11.4-15.8c0.7-0.9,3.5-1.5,4.3-0.9
			c9.4,6.8,13.6,13.7,8.1,26.2c-1.5,3.4-2,6.3,0.1,9.2c1.9,2.6,4.1,4.8,6.3,7.2c0.2,0.3,0.7,0.5,1,0.5c4.3-0.8,8.6-1.5,12.8-2.6
			c1-0.3,1.8-2,2.2-3.2c2.5-8,2.1-15.6-2.5-22.9c-6.2-9.8-12.3-19.6-18.4-29.5c-0.7-1.2-1.4-3.2-0.9-4.3c1.5-3.4,3.6-6.6,5.5-9.9
			c1.4-2.3,2.3-2.1,3.8,0.2c3.1,4.8,6.4,9.5,10.2,13.9c2.8,3.3,6.4,5.8,9.5,8.8c7.2,6.6,7.5,18.2,1.3,25.6c-1.8,2.1-3.3,5.6-3,8.2
			c0.6,5.1,2.9,9.9,7.1,13.2c1.1,0.9,3.7,1.3,4.8,0.6c4.4-2.9,7.9-6.8,7.8-12.5c-0.1-9.2-0.4-18.5-0.9-27.7c-0.1-3-0.2-6.4-1.6-8.9
			c-3-5.4-6.7-10.4-10.5-15.3c-3.5-4.6-7.1-9.2-7.8-15.1c-0.7-6.4-0.9-12.9-1-19.4c-0.1-5.1-0.3-10.2,4.2-14.1
			c0.9-0.8,1.4-2.2,2-3.5c4.1-9.6,7-19.5,7.8-29.9c0.9-11.4-0.1-22.6-3-33.6c-0.3-1,0.5-2.3,0.7-3.5c0.4-0.1,0.7-0.2,1.1-0.3
			c4.7,5.8,11,5.5,17.3,4.7c6-0.7,10.8-7.4,9.5-13.2c-0.5-2.2-1.2-4.5-1.5-6.7c-0.7-4.6-1.4-9.2-1.7-13.8c-0.6-8.5-1.4-17-1.1-25.4
			c0.2-4.2,0.4-8.2-1-12.2c-0.5-1.4-1.4-2.8-1.4-4.1c0.3-7.5-4-12.2-9.7-15.9c-2.9-1.9-2.9-3.5-0.6-5.8c5.8-5.9,10.4-12.5,12.2-20.9
			c1.3-6.4,2.8-12.9,5.1-19c1.4-3.5,2-6.9,1.8-10.5C528.1,0.7,525.3-1,523,0.6z"/>
	</g>
</g>
</svg>
