<?xml version="1.0" encoding="utf-8"?>
<!-- Generator: Adobe Illustrator 26.0.0, SVG Export Plug-In . SVG Version: 6.00 Build 0)  -->
<svg version="1.1" id="Capa_1" xmlns="http://www.w3.org/2000/svg" xmlns:xlink="http://www.w3.org/1999/xlink" x="0px" y="0px"
	 viewBox="0 0 410.4 472.9" style="enable-background:new 0 0 410.4 472.9;" xml:space="preserve">
<style type="text/css">
	.st0{fill:#FFFFFF;}
</style>
<g>
	<path class="st0" d="M124.8,0c-28.1,0.1-54,5.8-66.7,9.8c0,0,115,19.5,124.5,98.9C95.3-17.3,0,135,0,135
		c19.9-5.2,76.8-20.7,114.8-14.2c26,4.5,51.3,28,50.2,27.7C103,163.8,4.6,439.5,21.3,461.9c14.9,17.1,29.8,11.3,44.7,2.6
		c7.4-58.4,64.9-314.8,135.4-294.1c0,0,0,0,0,0c5.9,2,11.5,5.6,11.8,11c0.6,10.4-6.1,27.3-4.5,39.1c3.7,27.3,9,36.8,16.8,46.3
		c18.6-10.4,36.3-48.1,40-67.6c16.6,7.3,43.4,24.2,65.2,86.8c11.4-58.7-5-105-59-125.6c23.4-10.1,125.1,41,137.6,69.5
		c12.1-51.4-73.4-114.3-144.6-110.9c13.6-3.6,28.6,0.6,42.9-9.9c19.1-14.1,41.5-26.2,62.3-39.3c-70-30.4-134.5-15.4-139.1,16.1
		C227.2,16.1,173-0.2,124.8,0L124.8,0z"/>
</g>
</svg>
